<svg width="287" height="133" viewBox="0 0 287 133" fill="none" xmlns="http://www.w3.org/2000/svg">
<path d="M243.057 67.2961C243.057 69.4392 242.773 71.5065 242.204 73.498C241.656 75.4679 240.868 77.3187 239.839 79.0505C238.81 80.7606 237.584 82.33 236.161 83.7587C234.738 85.1658 233.15 86.378 231.399 87.3955C229.647 88.4129 227.764 89.203 225.75 89.7658C223.757 90.307 221.677 90.5776 219.51 90.5776H205.322V44.0146H219.51C221.677 44.0146 223.757 44.296 225.75 44.8588C227.764 45.4 229.647 46.1793 231.399 47.1967C233.15 48.2141 234.738 49.4372 236.161 50.8659C237.584 52.273 238.81 53.8424 239.839 55.5742C240.868 57.2843 241.656 59.1351 242.204 61.1267C242.773 63.0965 243.057 65.153 243.057 67.2961ZM233.632 67.2961C233.632 65.3695 233.26 63.562 232.515 61.8735C231.793 60.185 230.786 58.713 229.494 57.4575C228.224 56.1803 226.724 55.1737 224.994 54.4377C223.287 53.7017 221.458 53.3337 219.51 53.3337H214.813V81.2585H219.51C221.458 81.2585 223.287 80.9013 224.994 80.187C226.724 79.451 228.224 78.4552 229.494 77.1997C230.786 75.9225 231.793 74.4396 232.515 72.7512C233.26 71.041 233.632 69.2227 233.632 67.2961Z" fill="white"/>
<path d="M287 76.6152C287 78.5418 286.628 80.3493 285.883 82.0378C285.139 83.7263 284.121 85.2091 282.829 86.4863C281.559 87.7418 280.07 88.7376 278.363 89.4736C276.655 90.2096 274.827 90.5776 272.878 90.5776H249.33V44.0146H272.878C274.827 44.0146 276.655 44.3826 278.363 45.1186C280.07 45.8546 281.559 46.8612 282.829 48.1384C284.121 49.3939 285.139 50.8659 285.883 52.5544C286.628 54.2429 287 56.0504 287 57.977C287 58.8429 286.88 59.7304 286.639 60.6396C286.398 61.5488 286.059 62.4255 285.621 63.2697C285.183 64.114 284.657 64.8824 284.044 65.5751C283.431 66.2679 282.752 66.8415 282.008 67.2961C282.774 67.7074 283.464 68.2702 284.077 68.9846C284.69 69.6773 285.216 70.4457 285.653 71.29C286.091 72.1342 286.42 73.0218 286.639 73.9526C286.88 74.8618 287 75.7493 287 76.6152ZM258.756 81.2585H272.878C273.535 81.2585 274.148 81.1394 274.717 80.9013C275.286 80.6632 275.779 80.3385 276.195 79.9272C276.633 79.4942 276.972 78.9964 277.213 78.4335C277.454 77.8707 277.574 77.2646 277.574 76.6152C277.574 75.9658 277.454 75.3596 277.213 74.7968C276.972 74.234 276.633 73.7469 276.195 73.3356C275.779 72.9027 275.286 72.5672 274.717 72.329C274.148 72.0909 273.535 71.9719 272.878 71.9719H258.756V81.2585ZM258.756 62.6528H272.878C273.535 62.6528 274.148 62.5337 274.717 62.2956C275.286 62.0575 275.779 61.7328 276.195 61.3215C276.633 60.8885 276.972 60.3907 277.213 59.8278C277.454 59.2434 277.574 58.6264 277.574 57.977C277.574 57.3276 277.454 56.7215 277.213 56.1586C276.972 55.5958 276.633 55.1088 276.195 54.6975C275.779 54.2645 275.286 53.929 274.717 53.6909C274.148 53.4527 273.535 53.3337 272.878 53.3337H258.756V62.6528Z" fill="white"/>
<path fill-rule="evenodd" clip-rule="evenodd" d="M0 110.069H286.436V121.534C286.436 127.867 278.908 133 269.621 133H16.8151C7.52836 133 0 127.867 0 121.534V110.069ZM33.6301 115.604H57.983C61.1853 115.604 63.7813 117.374 63.7813 119.558V123.511C63.7813 125.695 61.1853 127.465 57.983 127.465H33.6301C30.4278 127.465 27.8318 125.695 27.8318 123.511V119.558C27.8318 117.374 30.4278 115.604 33.6301 115.604ZM122.924 115.604H98.5711C95.3688 115.604 92.7728 117.374 92.7728 119.558V123.511C92.7728 125.695 95.3688 127.465 98.5711 127.465H122.924C126.126 127.465 128.722 125.695 128.722 123.511V119.558C128.722 117.374 126.126 115.604 122.924 115.604ZM163.512 115.604H187.865C191.067 115.604 193.663 117.374 193.663 119.558V123.511C193.663 125.695 191.067 127.465 187.865 127.465H163.512C160.31 127.465 157.714 125.695 157.714 123.511V119.558C157.714 117.374 160.31 115.604 163.512 115.604ZM252.806 115.604H228.453C225.251 115.604 222.655 117.374 222.655 119.558V123.511C222.655 125.695 225.251 127.465 228.453 127.465H252.806C256.008 127.465 258.604 125.695 258.604 123.511V119.558C258.604 117.374 256.008 115.604 252.806 115.604Z" fill="white"/>
<path fill-rule="evenodd" clip-rule="evenodd" d="M0 22.931H286.436V11.4655C286.436 5.13329 278.908 0 269.621 0H16.8151C7.52836 0 0 5.13329 0 11.4655V22.931ZM33.6301 17.396H57.983C61.1853 17.396 63.7813 15.6259 63.7813 13.4423V9.4887C63.7813 7.30518 61.1853 5.53508 57.983 5.53508H33.6301C30.4278 5.53508 27.8318 7.30518 27.8318 9.4887V13.4423C27.8318 15.6259 30.4278 17.396 33.6301 17.396ZM122.924 17.396H98.5711C95.3688 17.396 92.7728 15.6259 92.7728 13.4423V9.4887C92.7728 7.30518 95.3688 5.53508 98.5711 5.53508H122.924C126.126 5.53508 128.722 7.30518 128.722 9.4887V13.4423C128.722 15.6259 126.126 17.396 122.924 17.396ZM163.512 17.396H187.865C191.067 17.396 193.663 15.6259 193.663 13.4423V9.4887C193.663 7.30518 191.067 5.53508 187.865 5.53508H163.512C160.31 5.53508 157.714 7.30518 157.714 9.4887V13.4423C157.714 15.6259 160.31 17.396 163.512 17.396ZM252.806 17.396H228.453C225.251 17.396 222.655 15.6259 222.655 13.4423V9.4887C222.655 7.30518 225.251 5.53508 228.453 5.53508H252.806C256.008 5.53508 258.604 7.30518 258.604 9.4887V13.4423C258.604 15.6259 256.008 17.396 252.806 17.396Z" fill="white"/>
</svg>
