<svg width="198" height="50" viewBox="0 0 198 50" fill="none" xmlns="http://www.w3.org/2000/svg">
<path d="M47.0615 48.9562H37.6689V14.4781C37.6689 13.8047 37.5376 13.1762 37.2748 12.5926C37.034 12.009 36.6946 11.5039 36.2568 11.0774C35.8408 10.6285 35.3481 10.2806 34.7789 10.0337C34.2097 9.78675 33.5966 9.6633 32.9398 9.6633C32.283 9.6633 31.6699 9.78675 31.1007 10.0337C30.5314 10.2806 30.0279 10.6285 29.59 11.0774C29.174 11.5039 28.8456 12.009 28.6047 12.5926C28.3639 13.1762 28.2435 13.8047 28.2435 14.4781V48.9562H18.818V14.4781C18.818 13.8047 18.6976 13.1762 18.4568 12.5926C18.216 12.009 17.8766 11.5039 17.4387 11.0774C17.0227 10.6285 16.5301 10.2806 15.9609 10.0337C15.3916 9.78675 14.7786 9.6633 14.1217 9.6633C13.4649 9.6633 12.8519 9.78675 12.2826 10.0337C11.7134 10.2806 11.2098 10.6285 10.7719 11.0774C10.3559 11.5039 10.0275 12.009 9.7867 12.5926C9.54586 13.1762 9.42544 13.8047 9.42544 14.4781V48.9562H0V14.4781C0 12.4804 0.361254 10.6061 1.08376 8.85522C1.82816 7.08193 2.8353 5.54433 4.10516 4.24242C5.39691 2.91807 6.89667 1.88552 8.60441 1.14478C10.3341 0.381594 12.1732 0 14.1217 0C15.8733 0 17.5591 0.325477 19.1793 0.976431C20.7995 1.60494 22.2554 2.52525 23.5472 3.73737C24.8389 2.52525 26.284 1.60494 27.8822 0.976431C29.5024 0.325477 31.1883 0 32.9398 0C34.8884 0 36.7165 0.381594 38.4243 1.14478C40.1539 1.88552 41.6537 2.91807 42.9235 4.24242C44.2153 5.54433 45.2224 7.08193 45.9449 8.85522C46.6893 10.6061 47.0615 12.4804 47.0615 14.4781V48.9562Z" fill="#81BECB"/>
<path d="M101.644 25.0168C101.644 27.3064 101.348 29.5174 100.757 31.6498C100.188 33.7598 99.3777 35.7464 98.3268 37.6094C97.2758 39.4501 96.006 41.1336 94.5172 42.6599C93.0284 44.1863 91.3863 45.4994 89.591 46.5993C87.7957 47.6768 85.858 48.5073 83.7781 49.0909C81.6981 49.697 79.5415 50 77.3083 50C75.0751 50 72.9186 49.697 70.8386 49.0909C68.7806 48.5073 66.8429 47.6768 65.0257 46.5993C63.2304 45.4994 61.5883 44.1863 60.0995 42.6599C58.6107 41.1336 57.3299 39.4501 56.2571 37.6094C55.2062 35.7464 54.3851 33.7598 53.794 31.6498C53.2247 29.5174 52.9401 27.3064 52.9401 25.0168C52.9401 22.7273 53.2247 20.5163 53.794 18.3838C54.3851 16.2514 55.2062 14.2649 56.2571 12.4242C57.3299 10.5836 58.6107 8.90011 60.0995 7.37374C61.5883 5.84736 63.2304 4.54545 65.0257 3.46801C66.8429 2.39057 68.7806 1.56004 70.8386 0.976431C72.9186 0.37037 75.0751 0.0673401 77.3083 0.0673401C79.5415 0.0673401 81.6981 0.37037 83.7781 0.976431C85.858 1.56004 87.7957 2.39057 89.591 3.46801C91.3863 4.54545 93.0284 5.84736 94.5172 7.37374C96.006 8.90011 97.2758 10.5836 98.3268 12.4242C99.3777 14.2649 100.188 16.2514 100.757 18.3838C101.348 20.5163 101.644 22.7273 101.644 25.0168ZM92.284 25.0168C92.284 22.9068 91.8899 20.9203 91.1017 19.0572C90.3135 17.1717 89.2407 15.5443 87.8832 14.1751C86.5477 12.7834 84.9604 11.6835 83.1212 10.8754C81.304 10.0673 79.3664 9.6633 77.3083 9.6633C75.2284 9.6633 73.2798 10.0673 71.4626 10.8754C69.6454 11.6835 68.0581 12.7834 66.7006 14.1751C65.3432 15.5443 64.2704 17.1717 63.4822 19.0572C62.694 20.9203 62.2999 22.9068 62.2999 25.0168C62.2999 27.1268 62.694 29.1134 63.4822 30.9764C64.2704 32.8171 65.3432 34.4332 66.7006 35.8249C68.0581 37.2166 69.6454 38.3165 71.4626 39.1246C73.2798 39.9327 75.2284 40.3367 77.3083 40.3367C79.3664 40.3367 81.304 39.9327 83.1212 39.1246C84.9604 38.3165 86.5477 37.2166 87.8832 35.8249C89.2407 34.4332 90.3135 32.8171 91.1017 30.9764C91.8899 29.1134 92.284 27.1268 92.284 25.0168Z" fill="#81BECB"/>
<path d="M142.991 0.673401L127.523 48.9562H118.097L102.695 0.673401H113.401L122.794 32.8956L132.219 0.673401H142.991Z" fill="#81BECB"/>
<path d="M156.948 48.9562H147.523V0.673401H156.948V48.9562Z" fill="#81BECB"/>
<path d="M198 48.9562H165.717V0.673401H198V10.3367H175.142V20H190.611V29.6633H175.142V39.2929H198V48.9562Z" fill="#81BECB"/>
</svg>
