<svg width="107" height="27" viewBox="0 0 107 27" fill="none" xmlns="http://www.w3.org/2000/svg">
<path d="M25.4322 26.4364H20.3564V7.81818C20.3564 7.45454 20.2855 7.11515 20.1435 6.8C20.0133 6.48485 19.8299 6.21212 19.5933 5.98182C19.3685 5.73939 19.1023 5.55151 18.7947 5.41818C18.487 5.28485 18.1557 5.21818 17.8008 5.21818C17.4458 5.21818 17.1146 5.28485 16.8069 5.41818C16.4993 5.55151 16.2272 5.73939 15.9905 5.98182C15.7657 6.21212 15.5883 6.48485 15.4581 6.8C15.328 7.11515 15.2629 7.45454 15.2629 7.81818V26.4364H10.1693V7.81818C10.1693 7.45454 10.1043 7.11515 9.97412 6.8C9.84398 6.48485 9.66059 6.21212 9.42395 5.98182C9.19915 5.73939 8.93294 5.55151 8.62531 5.41818C8.31769 5.28485 7.9864 5.21818 7.63145 5.21818C7.2765 5.21818 6.94521 5.28485 6.63758 5.41818C6.32996 5.55151 6.05783 5.73939 5.8212 5.98182C5.5964 6.21212 5.41892 6.48485 5.28877 6.8C5.15862 7.11515 5.09355 7.45454 5.09355 7.81818V26.4364H0V7.81818C0 6.73939 0.195223 5.72727 0.585669 4.78182C0.987947 3.82424 1.53221 2.99394 2.21844 2.29091C2.91651 1.57576 3.72699 1.01818 4.64986 0.618182C5.58456 0.206061 6.57843 0 7.63145 0C8.57798 0 9.48903 0.175758 10.3646 0.527273C11.2401 0.866667 12.0269 1.36364 12.725 2.01818C13.4231 1.36364 14.204 0.866667 15.0677 0.527273C15.9432 0.175758 16.8543 0 17.8008 0C18.8538 0 19.8418 0.206061 20.7646 0.618182C21.6993 1.01818 22.5098 1.57576 23.1961 2.29091C23.8941 2.99394 24.4384 3.82424 24.8288 4.78182C25.2311 5.72727 25.4322 6.73939 25.4322 7.81818V26.4364Z" fill="#81BECB"/>
<path d="M54.9287 13.5091C54.9287 14.7455 54.769 15.9394 54.4495 17.0909C54.1419 18.2303 53.7041 19.303 53.1362 20.3091C52.5683 21.303 51.882 22.2121 51.0775 23.0364C50.2729 23.8606 49.3855 24.5697 48.4153 25.1636C47.4451 25.7455 46.398 26.1939 45.274 26.5091C44.15 26.8364 42.9846 27 41.7777 27C40.5709 27 39.4055 26.8364 38.2815 26.5091C37.1693 26.1939 36.1222 25.7455 35.1402 25.1636C34.17 24.5697 33.2826 23.8606 32.478 23.0364C31.6735 22.2121 30.9813 21.303 30.4016 20.3091C29.8336 19.303 29.3899 18.2303 29.0705 17.0909C28.7629 15.9394 28.6091 14.7455 28.6091 13.5091C28.6091 12.2727 28.7629 11.0788 29.0705 9.92727C29.3899 8.77576 29.8336 7.70303 30.4016 6.70909C30.9813 5.71515 31.6735 4.80606 32.478 3.98182C33.2826 3.15758 34.17 2.45455 35.1402 1.87273C36.1222 1.29091 37.1693 0.842424 38.2815 0.527273C39.4055 0.2 40.5709 0.0363636 41.7777 0.0363636C42.9846 0.0363636 44.15 0.2 45.274 0.527273C46.398 0.842424 47.4451 1.29091 48.4153 1.87273C49.3855 2.45455 50.2729 3.15758 51.0775 3.98182C51.882 4.80606 52.5683 5.71515 53.1362 6.70909C53.7041 7.70303 54.1419 8.77576 54.4495 9.92727C54.769 11.0788 54.9287 12.2727 54.9287 13.5091ZM49.8706 13.5091C49.8706 12.3697 49.6577 11.297 49.2317 10.2909C48.8058 9.27273 48.226 8.39394 47.4925 7.65454C46.7707 6.90303 45.9129 6.30909 44.9191 5.87273C43.937 5.43636 42.8899 5.21818 41.7777 5.21818C40.6537 5.21818 39.6007 5.43636 38.6187 5.87273C37.6366 6.30909 36.7788 6.90303 36.0453 7.65454C35.3117 8.39394 34.732 9.27273 34.306 10.2909C33.8801 11.297 33.6671 12.3697 33.6671 13.5091C33.6671 14.6485 33.8801 15.7212 34.306 16.7273C34.732 17.7212 35.3117 18.5939 36.0453 19.3455C36.7788 20.097 37.6366 20.6909 38.6187 21.1273C39.6007 21.5636 40.6537 21.7818 41.7777 21.7818C42.8899 21.7818 43.937 21.5636 44.9191 21.1273C45.9129 20.6909 46.7707 20.097 47.4925 19.3455C48.226 18.5939 48.8058 17.7212 49.2317 16.7273C49.6577 15.7212 49.8706 14.6485 49.8706 13.5091Z" fill="#81BECB"/>
<path d="M77.2729 0.363636L68.9137 26.4364H63.8202L55.4966 0.363636H61.2823L66.3581 17.7636L71.4517 0.363636H77.2729Z" fill="#81BECB"/>
<path d="M84.8156 26.4364H79.722V0.363636H84.8156V26.4364Z" fill="#81BECB"/>
<path d="M107 26.4364H89.5542V0.363636H107V5.58182H94.6477V10.8H103.007V16.0182H94.6477V21.2182H107V26.4364Z" fill="#81BECB"/>
</svg>
